<?xml version="1.0" encoding="UTF-8"?>
<svg xmlns="http://www.w3.org/2000/svg" xmlns:xlink="http://www.w3.org/1999/xlink" viewBox="0 0 64 64" width="64px" height="64px">
<g id="surface2036862">
<path style=" stroke:none;fill-rule:nonzero;fill:rgb(100%,100%,100%);fill-opacity:1;" d="M 57.601562 5.121094 L 6.398438 5.121094 C 5.691406 5.121094 5.121094 5.695312 5.121094 6.398438 L 5.121094 57.601562 C 5.121094 58.304688 5.691406 58.878906 6.398438 58.878906 L 57.601562 58.878906 C 58.308594 58.878906 58.878906 58.304688 58.878906 57.601562 L 58.878906 6.398438 C 58.878906 5.695312 58.308594 5.121094 57.601562 5.121094 Z M 37.121094 33.847656 L 30.71875 33.847656 L 30.71875 53.761719 L 25.601562 53.761719 L 25.601562 33.847656 L 19.199219 33.847656 L 19.199219 29.441406 L 37.121094 29.441406 Z M 38.554688 52.625 L 38.554688 47.300781 C 38.554688 47.300781 41.460938 49.492188 44.949219 49.492188 C 48.4375 49.492188 48.304688 47.210938 48.304688 46.898438 C 48.304688 43.589844 38.421875 43.589844 38.421875 36.257812 C 38.421875 26.285156 52.820312 30.21875 52.820312 30.21875 L 52.640625 34.960938 C 52.640625 34.960938 50.226562 33.347656 47.5 33.347656 C 44.769531 33.347656 43.785156 34.644531 43.785156 36.03125 C 43.785156 39.609375 53.757812 39.253906 53.757812 46.453125 C 53.761719 57.542969 38.554688 52.625 38.554688 52.625 Z M 38.554688 52.625 "/>
</g>
</svg>
